<svg xmlns="http://www.w3.org/2000/svg" width="333.999" height="71.178" viewBox="0 0 333.999 71.178">
  <g id="FullLogo_1_" data-name="FullLogo (1)" transform="translate(8074.476 8937.72)">
    <g id="Layer_1" transform="translate(-8074.476 -8937.721)">
      <g id="Group_110" data-name="Group 110" transform="translate(0 0)">
        <path id="Path_180" data-name="Path 180" d="M23.9,17.822v16.71a6.857,6.857,0,0,1-1.017,3.739,13.174,13.174,0,0,1-2.49,2.909,16.053,16.053,0,0,1,2.445,2.91A6.676,6.676,0,0,1,23.9,47.828V65.552h5.075V77.276H12.725a2.472,2.472,0,0,1-1.338-.553A2.567,2.567,0,0,1,10.6,74.51v-21.7a6.388,6.388,0,0,0-1.57-4.431,6.83,6.83,0,0,0-3.507-2.217V36.009a3.351,3.351,0,0,0,1.847-.6,7.257,7.257,0,0,0,2.816-3.6,6.664,6.664,0,0,0,.415-2.263V8.867a2.572,2.572,0,0,1,.785-2.215A2.5,2.5,0,0,1,12.726,6.1H28.973V17.823H23.9Z" transform="translate(-5.524 -6.099)" fill="#fff"/>
        <path id="Path_181" data-name="Path 181" d="M447.7,17.822V6.1h16.245a2.66,2.66,0,0,1,1.294.553,2.5,2.5,0,0,1,.83,2.215V29.548a6.658,6.658,0,0,0,.42,2.263,7.924,7.924,0,0,0,1.1,2.077,6.833,6.833,0,0,0,1.57,1.524,3.286,3.286,0,0,0,1.9.6V46.165a6.839,6.839,0,0,0-3.418,2.217,6.411,6.411,0,0,0-1.57,4.431v21.7a2.555,2.555,0,0,1-.785,2.213,2.452,2.452,0,0,1-1.339.553H447.7V65.553h5.081V47.828a6.863,6.863,0,0,1,1.013-3.739,13.106,13.106,0,0,1,2.49-2.91,12.993,12.993,0,0,1-2.49-2.909,6.85,6.85,0,0,1-1.013-3.739V17.822Z" transform="translate(-137.062 -6.099)" fill="#fff"/>
        <path id="Path_182" data-name="Path 182" d="M70.419,59.842V18.572H98.435v8.37H79.95v8.895H95.18v7.728H79.95V59.842Z" transform="translate(-24.829 -9.809)" fill="#fff"/>
        <path id="Path_183" data-name="Path 183" d="M116.008,25.346V16.918h9.3v8.428h-9.3Zm0,34V28.836h9.3V59.35h-9.3Z" transform="translate(-38.39 -9.317)" fill="#fff"/>
        <path id="Path_184" data-name="Path 184" d="M144.691,64.4,133.877,33.881h9.533l6.685,23.076,6.741-23.076h8.721L154.748,64.4Z" transform="translate(-43.706 -14.363)" fill="#fff"/>
        <path id="Path_185" data-name="Path 185" d="M196.134,64.735a17.846,17.846,0,0,1-6.947-1.281A15.088,15.088,0,0,1,184.042,60a14.638,14.638,0,0,1-3.168-5.06,17.355,17.355,0,0,1,0-12.029,14.591,14.591,0,0,1,3.168-5.06,15.457,15.457,0,0,1,5.145-3.487,17.512,17.512,0,0,1,6.947-1.305,17.307,17.307,0,0,1,6.916,1.305,15.556,15.556,0,0,1,5.113,3.487,14.955,14.955,0,0,1,3.2,5.06,16.62,16.62,0,0,1,1.1,6.013,17.044,17.044,0,0,1-1.075,6.016A14.627,14.627,0,0,1,208.224,60a15.133,15.133,0,0,1-5.145,3.458A17.847,17.847,0,0,1,196.134,64.735Zm-6.8-15.815A8.441,8.441,0,0,0,191.25,54.7a6.212,6.212,0,0,0,4.883,2.181,6.129,6.129,0,0,0,2.673-.584,6.358,6.358,0,0,0,2.12-1.624,7.88,7.88,0,0,0,1.428-2.53,9.65,9.65,0,0,0,.522-3.228,8.438,8.438,0,0,0-1.919-5.781,6.152,6.152,0,0,0-4.823-2.181,6.344,6.344,0,0,0-4.855,2.209,7.75,7.75,0,0,0-1.423,2.53A9.626,9.626,0,0,0,189.329,48.92Z" transform="translate(-57.367 -14.118)" fill="#fff"/>
        <path id="Path_186" data-name="Path 186" d="M257.029,26.942H244.475v32.9h-9.535v-32.9H222.327v-8.37h34.7Z" transform="translate(-70.018 -9.809)" fill="#fff"/>
        <path id="Path_187" data-name="Path 187" d="M291.175,64.735a18.039,18.039,0,0,1-6.89-1.254,15.26,15.26,0,0,1-5.171-3.4,14.457,14.457,0,0,1-3.227-4.97,16.031,16.031,0,0,1-1.1-5.9,17.617,17.617,0,0,1,1.1-6.25,15.109,15.109,0,0,1,3.2-5.142,14.929,14.929,0,0,1,5.143-3.489,17.848,17.848,0,0,1,6.947-1.276,17.616,17.616,0,0,1,6.916,1.276,15.172,15.172,0,0,1,5.118,3.459,14.708,14.708,0,0,1,3.168,5.028,16.891,16.891,0,0,1,1.075,5.988c0,.54-.018,1.075-.06,1.6a11.127,11.127,0,0,1-.174,1.365H284.664a6.265,6.265,0,0,0,2.235,4.681,7.13,7.13,0,0,0,4.565,1.6,8.379,8.379,0,0,0,3.921-.986,5.068,5.068,0,0,0,2.534-2.675l7.9,2.209a14.2,14.2,0,0,1-5.577,5.869A17.287,17.287,0,0,1,291.175,64.735Zm6.452-18.717a6.981,6.981,0,0,0-2.093-4.591,6.3,6.3,0,0,0-4.475-1.689,6.226,6.226,0,0,0-4.507,1.716,7.125,7.125,0,0,0-2.061,4.564h13.136Z" transform="translate(-85.623 -14.118)" fill="#fff"/>
        <path id="Path_188" data-name="Path 188" d="M324.758,48.864a16.552,16.552,0,0,1,1.106-6.016,14.963,14.963,0,0,1,3.2-5.057,15.151,15.151,0,0,1,5.142-3.459,17.838,17.838,0,0,1,6.945-1.276,16.559,16.559,0,0,1,8.893,2.235,14.322,14.322,0,0,1,5.407,5.841l-9.066,2.733a5.837,5.837,0,0,0-5.287-2.907,6.278,6.278,0,0,0-4.854,2.151,8.25,8.25,0,0,0-1.947,5.755,9.831,9.831,0,0,0,.522,3.284,7.618,7.618,0,0,0,1.452,2.53,6.629,6.629,0,0,0,2.18,1.624,6.383,6.383,0,0,0,5.844-.261,5.383,5.383,0,0,0,2.15-2.18l9.067,2.791a13.681,13.681,0,0,1-5.376,5.811,16.838,16.838,0,0,1-8.982,2.271,17.355,17.355,0,0,1-6.885-1.312,15.722,15.722,0,0,1-5.173-3.487,14.611,14.611,0,0,1-3.224-5.057A16.522,16.522,0,0,1,324.758,48.864Z" transform="translate(-100.489 -14.118)" fill="#fff"/>
        <path id="Path_189" data-name="Path 189" d="M403.87,59.35h-9.3V42.2a6.647,6.647,0,0,0-1.191-4.359,4.017,4.017,0,0,0-3.226-1.4,4.887,4.887,0,0,0-1.776.379,7.158,7.158,0,0,0-1.856,1.1,9.907,9.907,0,0,0-1.655,1.716,7.436,7.436,0,0,0-1.165,2.209v17.5h-9.3V16.918h9.3V33.949a11.6,11.6,0,0,1,4.444-4.212,12.749,12.749,0,0,1,6.134-1.481,10.052,10.052,0,0,1,4.97,1.071,7.925,7.925,0,0,1,2.9,2.734,10.381,10.381,0,0,1,1.365,3.721,24.212,24.212,0,0,1,.348,4.04Z" transform="translate(-115.256 -9.317)" fill="#fff"/>
        <g id="Group_109" data-name="Group 109" transform="translate(46.304 53.634)">
          <path id="Path_190" data-name="Path 190" d="M79.953,87.967a2.489,2.489,0,0,0,.525-1.517,2.775,2.775,0,0,0-.422-1.483,3.1,3.1,0,0,0-1.135-1.091,3.035,3.035,0,0,0-1.535-.406H71.861v9.348h-.426V83.046h5.95a3.458,3.458,0,0,1,1.742.459,3.532,3.532,0,0,1,1.294,1.249,3.181,3.181,0,0,1,.482,1.7,2.467,2.467,0,0,1-.491,1.522,2.361,2.361,0,0,1,.491,1.383,3.566,3.566,0,0,1-.286,1.448,3.079,3.079,0,0,1-.763,1.1,3.519,3.519,0,0,1-1.118.679,3.793,3.793,0,0,1-1.352.241H74.648v-.424h2.737a3.1,3.1,0,0,0,1.184-.232,3.134,3.134,0,0,0,.986-.636,2.967,2.967,0,0,0,.67-.966,2.92,2.92,0,0,0,.252-1.2,2.2,2.2,0,0,0-.132-.683A2.122,2.122,0,0,0,79.953,87.967Zm.1-1.517a2.209,2.209,0,0,1-.582,1.495,2.059,2.059,0,0,1,.582,1.41,2.534,2.534,0,0,1-.366,1.343,2.619,2.619,0,0,1-.981.936,2.7,2.7,0,0,1-1.318.335H74.649v-.426h2.737a2.232,2.232,0,0,0,1.581-.618,2.046,2.046,0,0,0,.66-1.57,1.99,1.99,0,0,0-.174-.759,1.411,1.411,0,0,0-.482-.633,2.033,2.033,0,0,0-.018-3.008,2.207,2.207,0,0,0-1.568-.635H72.712v8.5h-.424V83.9h5.1a2.717,2.717,0,0,1,2.3,1.283A2.369,2.369,0,0,1,80.051,86.45Zm-5.4,1.338h2.737a1.459,1.459,0,0,0,.988-.348,1.249,1.249,0,0,0,.406-.991,1.183,1.183,0,0,0-.424-.9,1.406,1.406,0,0,0-.97-.384H73.562v7.648h-.426V84.746h4.25a1.806,1.806,0,0,1,1.272.509,1.594,1.594,0,0,1,.547,1.2,1.764,1.764,0,0,1-.249.939,1.679,1.679,0,0,1-.679.618,1.3,1.3,0,0,1,.928,1.347,1.647,1.647,0,0,1-.531,1.283,1.852,1.852,0,0,1-1.287.48H74.65v-.424h2.737a1.45,1.45,0,0,0,.988-.35,1.242,1.242,0,0,0,.406-.988,1.09,1.09,0,0,0-.308-.763,1.355,1.355,0,0,0-.9-.384c-.038,0-.1.006-.183.006H74.65v-.426Zm-.237,5.029h-.424V85.593h3.4a1.026,1.026,0,0,1,.685.246.783.783,0,0,1,.283.611.851.851,0,0,1-.266.7,1.087,1.087,0,0,1-.7.214H74.648v-.424h2.737c.361,0,.542-.165.542-.491a.375.375,0,0,0-.152-.317.643.643,0,0,0-.391-.113H74.411v6.8Zm3.516-3.4a.32.32,0,0,0-.138-.308.882.882,0,0,0-.4-.076H74.648v-.424h2.737c.644,0,.968.268.968.808a.773.773,0,0,1-.266.656,1.139,1.139,0,0,1-.7.2H74.648v-.424h2.737C77.746,89.846,77.928,89.7,77.928,89.413Z" transform="translate(-71.435 -82.623)" fill="#fff"/>
          <path id="Path_191" data-name="Path 191" d="M102.937,89.594V84.86h.426v4.734a4.015,4.015,0,0,1-.341,1.626,4.164,4.164,0,0,1-.922,1.333,4.4,4.4,0,0,1-1.377.9,4.347,4.347,0,0,1-3.337,0,4.392,4.392,0,0,1-1.376-.9,4.175,4.175,0,0,1-.922-1.333,4.006,4.006,0,0,1-.341-1.626V84.86h.426v4.734a3.578,3.578,0,0,0,.522,1.881,3.813,3.813,0,0,0,1.415,1.377,3.989,3.989,0,0,0,3.891,0,3.8,3.8,0,0,0,1.415-1.377A3.584,3.584,0,0,0,102.937,89.594Zm-.848,0V84.86h.424v4.734a3.18,3.18,0,0,1-.466,1.671,3.374,3.374,0,0,1-1.263,1.22,3.554,3.554,0,0,1-3.458,0,3.385,3.385,0,0,1-1.263-1.22,3.177,3.177,0,0,1-.466-1.671V84.86h.424v4.734a2.752,2.752,0,0,0,.408,1.456,2.973,2.973,0,0,0,1.106,1.067,3.135,3.135,0,0,0,3.038,0,2.967,2.967,0,0,0,1.106-1.067A2.748,2.748,0,0,0,102.089,89.594Zm-.85,0V84.86h.424v4.734a2.347,2.347,0,0,1-.765,1.761,2.693,2.693,0,0,1-3.685,0,2.345,2.345,0,0,1-.765-1.761V84.86h.424v4.734a1.945,1.945,0,0,0,.64,1.461,2.275,2.275,0,0,0,3.083,0A1.942,1.942,0,0,0,101.239,89.594Zm-.849,0V84.86h.424v4.734a1.538,1.538,0,0,1-.515,1.158,1.843,1.843,0,0,1-2.486,0,1.54,1.54,0,0,1-.515-1.158V84.86h.424v4.734a1.127,1.127,0,0,0,.393.859,1.42,1.42,0,0,0,1.883,0A1.131,1.131,0,0,0,100.39,89.594Z" transform="translate(-78.37 -83.163)" fill="#fff"/>
          <path id="Path_192" data-name="Path 192" d="M117.1,84.859h.424v8.5H117.1Zm.85,0h.426v8.5h-.426Zm.85,0h.424v8.5H118.8Zm.849,0h.426v8.5h-.426Z" transform="translate(-85.02 -83.162)" fill="#fff"/>
          <path id="Path_193" data-name="Path 193" d="M131.479,84.859h.426v8.5h-.426Zm.852,0h.424v8.5h-.424Zm.848,0h.426v8.5h-.426Zm.852,0h.424v6.373h3.133v.424h-3.133v.426h3.133v.426h-3.133v.424h3.133v.424h-3.557Z" transform="translate(-89.297 -83.162)" fill="#fff"/>
          <path id="Path_194" data-name="Path 194" d="M154.986,93.357H150.08v-8.5h4.906a4.067,4.067,0,0,1,2.091.569,4.28,4.28,0,0,1,1.546,1.548,4.1,4.1,0,0,1,.575,2.12,4.147,4.147,0,0,1-.339,1.659,4.341,4.341,0,0,1-.91,1.361,4.277,4.277,0,0,1-1.347.906A4.054,4.054,0,0,1,154.986,93.357Zm-4.48-.424h4.48a3.612,3.612,0,0,0,1.874-.511,3.842,3.842,0,0,0,1.385-1.394,3.783,3.783,0,0,0,.516-1.932,3.715,3.715,0,0,0-.516-1.907,3.828,3.828,0,0,0-1.387-1.395,3.654,3.654,0,0,0-1.872-.509h-4.48Zm.424-.424v-6.8h4.056a3.207,3.207,0,0,1,1.659.455,3.383,3.383,0,0,1,1.225,1.236,3.329,3.329,0,0,1,.453,1.7,3.424,3.424,0,0,1-1.678,2.958,3.2,3.2,0,0,1-1.659.455h-4.056Zm.424-.426h3.632a2.8,2.8,0,0,0,1.446-.4,2.936,2.936,0,0,0,1.062-1.086,2.983,2.983,0,0,0,.395-1.506,2.919,2.919,0,0,0-.395-1.481,2.968,2.968,0,0,0-1.067-1.082,2.772,2.772,0,0,0-1.441-.4h-3.632Zm.426-.426v-5.1h3.206a2.339,2.339,0,0,1,1.736.747,2.471,2.471,0,0,1,.729,1.789,2.516,2.516,0,0,1-.725,1.816,2.349,2.349,0,0,1-1.74.745Zm.426-.424h2.78a1.909,1.909,0,0,0,1.432-.622,2.113,2.113,0,0,0,.6-1.515,2.065,2.065,0,0,0-.6-1.49,1.914,1.914,0,0,0-1.43-.62h-2.78v4.247Zm.424-.424v-3.4h2.356a1.492,1.492,0,0,1,1.122.5,1.665,1.665,0,0,1,.471,1.191,1.7,1.7,0,0,1-.469,1.217,1.484,1.484,0,0,1-1.124.5h-2.356Zm.424-.424h1.932a1.069,1.069,0,0,0,.816-.374,1.306,1.306,0,0,0,.339-.915,1.286,1.286,0,0,0-.339-.891,1.072,1.072,0,0,0-.816-.372h-1.932Z" transform="translate(-94.83 -83.162)" fill="#fff"/>
          <path id="Path_195" data-name="Path 195" d="M172.979,84.859h.424v8.5h-.424Zm.849,0h.426v8.5h-.426Zm.85,0h.424v8.5h-.424Zm.849,0h.426v8.5h-.426Z" transform="translate(-101.642 -83.162)" fill="#fff"/>
          <path id="Path_196" data-name="Path 196" d="M187.784,85.593v7.764h-.426v-8.5h.509l4.9,8.5h-.491Zm.426,1.166.424.778v5.818h-.424Zm.148-1.9h.495l4.922,8.5h-.5Zm.7,3.429.426.772v4.3h-.426Zm.3-3.429h.5l4.917,8.5h-.509Zm.995,0h.5l4.486,7.761V84.859h.426v8.5h-.5Zm3.708,5.071-.426-.774v-4.3h.426Zm.847,1.468-.424-.718V84.86h.424Z" transform="translate(-105.919 -83.162)" fill="#fff"/>
          <path id="Path_197" data-name="Path 197" d="M215.351,88.872h.424v4.306a4.677,4.677,0,0,1-1.952.426,4.515,4.515,0,0,1-1.814-.372,4.706,4.706,0,0,1-1.49-1,4.774,4.774,0,0,1-1-1.488,4.647,4.647,0,0,1,0-3.632,4.8,4.8,0,0,1,1-1.49,4.7,4.7,0,0,1,1.49-.995,4.515,4.515,0,0,1,1.814-.372,4.581,4.581,0,0,1,2.042.469,4.664,4.664,0,0,1,1.61,1.289l-.341.254a4.236,4.236,0,0,0-1.461-1.162,4.1,4.1,0,0,0-1.85-.426,4.182,4.182,0,0,0-1.649.337,4.188,4.188,0,0,0-2.265,2.262,4.213,4.213,0,0,0,0,3.3,4.181,4.181,0,0,0,2.265,2.265,4.178,4.178,0,0,0,1.649.335,4.235,4.235,0,0,0,1.529-.281v-.437a4.084,4.084,0,0,1-1.529.294,3.765,3.765,0,0,1-1.488-.3,3.84,3.84,0,0,1-1.217-.814,3.885,3.885,0,0,1-.814-1.22,3.779,3.779,0,0,1,0-2.971,3.869,3.869,0,0,1,.814-1.22,3.829,3.829,0,0,1,1.217-.814,3.822,3.822,0,0,1,3.161.08,3.809,3.809,0,0,1,1.319,1.055l-.33.266a3.4,3.4,0,0,0-1.174-.937A3.392,3.392,0,0,0,212.5,85.8a3.483,3.483,0,0,0-1.086.727,3.425,3.425,0,0,0-.993,2.4,3.327,3.327,0,0,0,.268,1.319,3.4,3.4,0,0,0,.725,1.087,3.442,3.442,0,0,0,1.086.725,3.3,3.3,0,0,0,1.319.27,3.615,3.615,0,0,0,1.529-.33v-.437a3.509,3.509,0,0,1-1.529.341,2.9,2.9,0,0,1-1.492-.4,2.976,2.976,0,1,1,3.82-4.428l-.339.261a2.457,2.457,0,0,0-.874-.7,2.507,2.507,0,0,0-1.113-.254,2.549,2.549,0,0,0,0,5.1,3.048,3.048,0,0,0,1.529-.4v-.431a2.937,2.937,0,0,1-1.529.406,2.124,2.124,0,1,1,0-4.248,2.1,2.1,0,0,1,.932.214,2.069,2.069,0,0,1,.732.589l-.341.259a1.7,1.7,0,1,0-1.323,2.762,2.363,2.363,0,0,0,1.529-.5v-1.26Zm.849,0h.426v4.306H216.2Zm.85,0h.424v4.306h-.424Zm.849,0h.426v4.306H217.9Z" transform="translate(-112.402 -82.983)" fill="#fff"/>
          <path id="Path_198" data-name="Path 198" d="M246.509,86.69H245.8a.826.826,0,0,1-.656-.232.916.916,0,0,1-.2-.618q0-.85,1.272-.85a3.6,3.6,0,0,1,1.794.355l-.344.261a3.824,3.824,0,0,0-1.449-.192,1.421,1.421,0,0,0-.684.114.351.351,0,0,0-.174.313.478.478,0,0,0,.093.314.445.445,0,0,0,.348.112h.731a3.652,3.652,0,0,1,1.437.27,2.847,2.847,0,0,1,1.053.741,3.31,3.31,0,0,1,.634,1.082,3.862,3.862,0,0,1,.218,1.307,3.508,3.508,0,0,1-.161,1.071,3.018,3.018,0,0,1-.482.932,3.238,3.238,0,0,1-.772.737,3.637,3.637,0,0,1-1.076.483,4.986,4.986,0,0,1-1.347.174,6.411,6.411,0,0,1-2.132-.346,4.541,4.541,0,0,1-1.655-.964l.341-.254a4.148,4.148,0,0,0,1.508.841,6.167,6.167,0,0,0,1.938.3,4.282,4.282,0,0,0,1.459-.232,2.96,2.96,0,0,0,1.075-.641,2.847,2.847,0,0,0,.65-.943,2.937,2.937,0,0,0,.227-1.156,3.268,3.268,0,0,0-.33-1.485,2.621,2.621,0,0,0-1.006-1.078A3.017,3.017,0,0,0,246.509,86.69Zm-.713,2.124h.649a.821.821,0,0,1,.656.237.921.921,0,0,1,.2.615q0,.847-1.267.848a3.624,3.624,0,0,1-1.8-.353l.341-.261a3.875,3.875,0,0,0,1.458.19,1.424,1.424,0,0,0,.683-.111.355.355,0,0,0,.174-.313.471.471,0,0,0-.1-.312.456.456,0,0,0-.357-.114H245.8a3.927,3.927,0,0,1-1.473-.266,2.915,2.915,0,0,1-1.079-.731,3.331,3.331,0,0,1-.647-1.08,3.885,3.885,0,0,1-.223-1.323,3.529,3.529,0,0,1,.161-1.073,2.927,2.927,0,0,1,.481-.932,3.26,3.26,0,0,1,.774-.736,3.6,3.6,0,0,1,1.073-.482,4.992,4.992,0,0,1,1.35-.174,6.433,6.433,0,0,1,2.128.344,4.634,4.634,0,0,1,1.653.964l-.341.254a4.132,4.132,0,0,0-1.506-.838,6.072,6.072,0,0,0-1.934-.3,4.329,4.329,0,0,0-1.464.232,2.972,2.972,0,0,0-1.073.643,2.826,2.826,0,0,0-.649.941,2.945,2.945,0,0,0-.228,1.158,3.272,3.272,0,0,0,.337,1.5,2.579,2.579,0,0,0,1.029,1.071A3.17,3.17,0,0,0,245.8,88.814Zm0-1.7h.674a2.43,2.43,0,0,1,1.874.732,2.58,2.58,0,0,1,.674,1.82,2.373,2.373,0,0,1-.785,1.825,3.121,3.121,0,0,1-2.2.723,5.807,5.807,0,0,1-1.765-.259,3.847,3.847,0,0,1-1.363-.732l.331-.268a3.444,3.444,0,0,0,1.217.615,5.532,5.532,0,0,0,1.579.219,2.746,2.746,0,0,0,1.9-.6,1.963,1.963,0,0,0,.658-1.527,2.154,2.154,0,0,0-.553-1.524,2.029,2.029,0,0,0-1.577-.6H245.8a1.668,1.668,0,0,1-1.292-.471,1.752,1.752,0,0,1-.431-1.229,1.566,1.566,0,0,1,.533-1.227,2.363,2.363,0,0,1,1.6-.473,5.312,5.312,0,0,1,1.392.176,3,3,0,0,1,1.062.5l-.337.259a3.735,3.735,0,0,0-2.117-.507,1.979,1.979,0,0,0-1.3.35,1.163,1.163,0,0,0-.41.924,1.363,1.363,0,0,0,.3.925A1.258,1.258,0,0,0,245.8,87.114Zm0,.852h.649a1.649,1.649,0,0,1,1.292.478,1.752,1.752,0,0,1,.432,1.222,1.564,1.564,0,0,1-.535,1.227,2.374,2.374,0,0,1-1.6.471,5.366,5.366,0,0,1-1.4-.174,3.018,3.018,0,0,1-1.064-.5l.337-.261a3.726,3.726,0,0,0,2.123.507,2,2,0,0,0,1.3-.348,1.166,1.166,0,0,0,.409-.924,1.348,1.348,0,0,0-.306-.923,1.257,1.257,0,0,0-1-.353H245.8a2.476,2.476,0,0,1-1.892-.722,2.558,2.558,0,0,1-.681-1.827,2.386,2.386,0,0,1,.783-1.828,3.135,3.135,0,0,1,2.2-.722,5.84,5.84,0,0,1,1.76.259,3.843,3.843,0,0,1,1.359.732L249,84.55a3.487,3.487,0,0,0-1.214-.616,5.587,5.587,0,0,0-1.574-.216,2.745,2.745,0,0,0-1.906.6,1.971,1.971,0,0,0-.656,1.529,2.155,2.155,0,0,0,.554,1.526A2.066,2.066,0,0,0,245.8,87.967Z" transform="translate(-122.247 -82.444)" fill="#fff"/>
          <path id="Path_199" data-name="Path 199" d="M263.051,90.745a4.615,4.615,0,0,1,0-3.632,4.581,4.581,0,0,1,2.486-2.485,4.613,4.613,0,0,1,3.631,0,4.581,4.581,0,0,1,2.486,2.485,4.615,4.615,0,0,1,0,3.632,4.6,4.6,0,0,1-2.486,2.486,4.613,4.613,0,0,1-3.631,0,4.6,4.6,0,0,1-2.486-2.486Zm.389-3.466a4.229,4.229,0,0,0,0,3.3,4.164,4.164,0,0,0,2.262,2.265,4.236,4.236,0,0,0,3.3,0,4.164,4.164,0,0,0,2.262-2.265,4.229,4.229,0,0,0,0-3.3A4.171,4.171,0,0,0,269,85.017a4.22,4.22,0,0,0-3.3,0,4.171,4.171,0,0,0-2.262,2.262Zm.392,3.136a3.787,3.787,0,0,1,0-2.971,3.747,3.747,0,0,1,2.035-2.035,3.787,3.787,0,0,1,2.971,0,3.747,3.747,0,0,1,2.035,2.035,3.787,3.787,0,0,1,0,2.971,3.747,3.747,0,0,1-2.035,2.035,3.787,3.787,0,0,1-2.971,0,3.747,3.747,0,0,1-2.035-2.035Zm.388-2.807a3.387,3.387,0,0,0,0,2.639,3.5,3.5,0,0,0,.727,1.087,3.445,3.445,0,0,0,1.087.725,3.363,3.363,0,0,0,2.639,0,3.356,3.356,0,0,0,1.811-1.812,3.387,3.387,0,0,0,0-2.639,3.376,3.376,0,0,0-1.811-1.811,3.387,3.387,0,0,0-2.639,0,3.369,3.369,0,0,0-1.814,1.811Zm.558,2.814a3,3,0,0,1,0-2.987,2.979,2.979,0,1,1,2.575,4.468,2.967,2.967,0,0,1-2.575-1.481Zm.772-3.293a2.543,2.543,0,1,0,1.8-.749A2.46,2.46,0,0,0,265.55,87.129Zm.3,3.3a2.125,2.125,0,1,1,1.5.622A2.049,2.049,0,0,1,265.851,90.431Zm.3-2.7a1.69,1.69,0,1,0,1.2-.5A1.622,1.622,0,0,0,266.152,87.729Z" transform="translate(-128.326 -82.983)" fill="#fff"/>
          <path id="Path_200" data-name="Path 200" d="M285.905,84.859h.426v8.5h-.426Zm.85,0h.424v8.5h-.424Zm.849,0h.426v8.5H287.6Zm.851,0h.424v6.373h3.135v.424h-3.135v.426h3.135v.426h-3.135v.424h3.135v.424h-3.558v-8.5Z" transform="translate(-135.235 -83.162)" fill="#fff"/>
          <path id="Path_201" data-name="Path 201" d="M312.6,89.594V84.86h.424v4.734a3.969,3.969,0,0,1-.341,1.626,4.121,4.121,0,0,1-.922,1.333,4.412,4.412,0,0,1-3.043,1.229,4.3,4.3,0,0,1-1.671-.333,4.426,4.426,0,0,1-1.377-.9,4.19,4.19,0,0,1-.919-1.333,4.008,4.008,0,0,1-.344-1.626V84.86h.426v4.734a3.578,3.578,0,0,0,.522,1.881,3.793,3.793,0,0,0,1.417,1.377,3.986,3.986,0,0,0,3.889,0,3.818,3.818,0,0,0,1.417-1.377A3.583,3.583,0,0,0,312.6,89.594Zm-.851,0V84.86h.426v4.734a3.164,3.164,0,0,1-.469,1.671,3.359,3.359,0,0,1-1.263,1.22,3.554,3.554,0,0,1-3.458,0,3.393,3.393,0,0,1-1.262-1.22,3.175,3.175,0,0,1-.464-1.671V84.86h.424v4.734a2.744,2.744,0,0,0,.406,1.456,3,3,0,0,0,1.106,1.067,3.135,3.135,0,0,0,3.038,0,2.957,2.957,0,0,0,1.106-1.067A2.748,2.748,0,0,0,311.75,89.594Zm-.849,0V84.86h.424v4.734a2.338,2.338,0,0,1-.766,1.761,2.69,2.69,0,0,1-3.683,0,2.34,2.34,0,0,1-.767-1.761V84.86h.424v4.734a1.939,1.939,0,0,0,.642,1.461,2.274,2.274,0,0,0,3.083,0A1.936,1.936,0,0,0,310.9,89.594Zm-.848,0V84.86h.424v4.734a1.541,1.541,0,0,1-.518,1.158,1.842,1.842,0,0,1-2.485,0,1.54,1.54,0,0,1-.515-1.158V84.86h.426v4.734a1.12,1.12,0,0,0,.393.859,1.421,1.421,0,0,0,1.883,0A1.14,1.14,0,0,0,310.053,89.594Z" transform="translate(-140.739 -83.163)" fill="#fff"/>
          <path id="Path_202" data-name="Path 202" d="M326.485,85.286V84.86h6.374v.426Zm0,.847v-.424h6.374v.424Zm0,.853V86.56h6.374v.426Zm1.7.227h.424v6.144h-.424Zm.85,0h.426v6.144h-.426Zm.85,0h.424v6.144h-.424Zm.85,0h.426v6.144h-.426Z" transform="translate(-147.306 -83.163)" fill="#fff"/>
          <path id="Path_203" data-name="Path 203" d="M345.453,84.859h.426v8.5h-.426Zm.85,0h.424v8.5H346.3Zm.85,0h.426v8.5h-.426Zm.85,0h.424v8.5H348Z" transform="translate(-152.949 -83.162)" fill="#fff"/>
          <path id="Path_204" data-name="Path 204" d="M359.887,90.745a4.614,4.614,0,0,1,0-3.632,4.587,4.587,0,0,1,2.485-2.485,4.615,4.615,0,0,1,3.632,0,4.583,4.583,0,0,1,2.485,2.485,4.639,4.639,0,0,1,0,3.632,4.7,4.7,0,0,1-.995,1.488,4.754,4.754,0,0,1-1.49,1,4.615,4.615,0,0,1-3.632,0,4.609,4.609,0,0,1-2.485-2.486Zm.388-3.466a4.229,4.229,0,0,0,0,3.3,4.162,4.162,0,0,0,2.263,2.265,4.234,4.234,0,0,0,3.3,0,4.168,4.168,0,0,0,2.263-2.265,4.238,4.238,0,0,0,0-3.3,4.175,4.175,0,0,0-2.263-2.262,4.218,4.218,0,0,0-3.3,0,4.169,4.169,0,0,0-2.263,2.262Zm.392,3.136a3.787,3.787,0,0,1,0-2.971A3.748,3.748,0,0,1,362.7,85.41a3.789,3.789,0,0,1,2.972,0,3.767,3.767,0,0,1,2.034,2.035,3.787,3.787,0,0,1,0,2.971,3.767,3.767,0,0,1-2.034,2.035,3.789,3.789,0,0,1-2.972,0,3.748,3.748,0,0,1-2.035-2.035Zm.389-2.807a3.387,3.387,0,0,0,0,2.639,3.5,3.5,0,0,0,.727,1.087,3.454,3.454,0,0,0,1.087.725,3.363,3.363,0,0,0,2.639,0,3.355,3.355,0,0,0,1.811-1.812,3.379,3.379,0,0,0,0-2.639A3.376,3.376,0,0,0,365.51,85.8a3.387,3.387,0,0,0-2.639,0,3.368,3.368,0,0,0-1.814,1.811Zm.558,2.814a2.995,2.995,0,0,1,0-2.987,2.974,2.974,0,0,1,5.149,0,2.976,2.976,0,1,1-5.149,2.987Zm.772-3.293a2.543,2.543,0,1,0,1.8-.749A2.46,2.46,0,0,0,362.386,87.129Zm.3,3.3a2.126,2.126,0,1,1,1.5.622A2.049,2.049,0,0,1,362.687,90.431Zm.3-2.7a1.69,1.69,0,1,0,1.2-.5A1.622,1.622,0,0,0,362.988,87.729Z" transform="translate(-157.132 -82.983)" fill="#fff"/>
          <path id="Path_205" data-name="Path 205" d="M383.167,85.593v7.764h-.428v-8.5h.509l4.9,8.5h-.49Zm.424,1.166.424.778v5.818h-.424Zm.147-1.9h.5l4.922,8.5h-.5Zm.7,3.429.428.772v4.3h-.428Zm.3-3.429h.5l4.917,8.5h-.509Zm.995,0h.5l4.484,7.761V84.859h.428v8.5h-.5Zm3.707,5.071-.424-.774v-4.3h.424Zm.848,1.468-.424-.718V84.86h.424Z" transform="translate(-164.041 -83.162)" fill="#fff"/>
          <path id="Path_206" data-name="Path 206" d="M408.633,88.375h-.67q-1.727,0-1.727-1.044a.887.887,0,0,1,.536-.776,3.3,3.3,0,0,1,1.6-.306,5.312,5.312,0,0,1,1.392.176,2.982,2.982,0,0,1,1.062.5l-.335.259a3.741,3.741,0,0,0-2.12-.507,3.4,3.4,0,0,0-1.3.183c-.277.12-.41.278-.41.473a.491.491,0,0,0,.285.478,2.566,2.566,0,0,0,1.012.141h.67a3.837,3.837,0,0,1,2.534.747,2.473,2.473,0,0,1,.888,2,2.339,2.339,0,0,1-.249,1.073,2.686,2.686,0,0,1-.732.883,3.493,3.493,0,0,1-1.214.6,5.665,5.665,0,0,1-1.637.221,6.4,6.4,0,0,1-2.133-.346,4.585,4.585,0,0,1-1.652-.964l.344-.254a4.151,4.151,0,0,0,1.5.841,6.144,6.144,0,0,0,1.937.3,4.13,4.13,0,0,0,2.5-.672,2.03,2.03,0,0,0,.906-1.683A2.061,2.061,0,0,0,410.855,89,3.481,3.481,0,0,0,408.633,88.375Zm0,1.7h-.67a3.832,3.832,0,0,1-2.534-.747,2.475,2.475,0,0,1-.892-2,2.34,2.34,0,0,1,.254-1.075,2.687,2.687,0,0,1,.732-.884,3.523,3.523,0,0,1,1.209-.6,5.726,5.726,0,0,1,1.643-.219,6.456,6.456,0,0,1,2.132.344,4.656,4.656,0,0,1,1.652.964l-.344.254a4.116,4.116,0,0,0-1.5-.838,6.085,6.085,0,0,0-1.936-.3,4.113,4.113,0,0,0-2.5.674,2.025,2.025,0,0,0-.906,1.683,2.055,2.055,0,0,0,.776,1.691,3.457,3.457,0,0,0,2.221.627h.647q1.747,0,1.749,1.043a.892.892,0,0,1-.536.776,3.324,3.324,0,0,1-1.6.3,5.316,5.316,0,0,1-1.392-.174,3.018,3.018,0,0,1-1.062-.5l.335-.259a3.732,3.732,0,0,0,2.12.507,3.4,3.4,0,0,0,1.3-.183c.273-.123.41-.279.41-.473a.487.487,0,0,0-.285-.477A2.538,2.538,0,0,0,408.633,90.075Zm0-.852h-.67a3.112,3.112,0,0,1-1.909-.5,1.686,1.686,0,0,1,.12-2.767,3.787,3.787,0,0,1,2.2-.553,5.848,5.848,0,0,1,1.763.259,3.856,3.856,0,0,1,1.361.732l-.33.268a3.515,3.515,0,0,0-1.218-.616,5.573,5.573,0,0,0-1.574-.216,3.5,3.5,0,0,0-1.9.424,1.286,1.286,0,0,0-.12,2.171,2.821,2.821,0,0,0,1.611.379h.647a3.169,3.169,0,0,1,1.928.5,1.684,1.684,0,0,1-.116,2.769,3.781,3.781,0,0,1-2.2.551,5.766,5.766,0,0,1-1.763-.259,3.823,3.823,0,0,1-1.361-.732l.33-.268a3.437,3.437,0,0,0,1.218.616,5.5,5.5,0,0,0,1.575.218,3.508,3.508,0,0,0,1.9-.426,1.283,1.283,0,0,0,.12-2.168A2.809,2.809,0,0,0,408.633,89.223Z" transform="translate(-170.495 -83.071)" fill="#fff"/>
        </g>
      </g>
    </g>
  </g>
</svg>
